<svg width="100%" height="100%" viewBox="0 0 31 35" fill="none" xmlns="http://www.w3.org/2000/svg">
<path d="M15.5791 34.8315C14.0077 34.8315 12.7288 33.5813 12.6864 32.0229L4.54391 27.3305C4.12047 27.5594 3.66367 27.672 3.21131 27.6785L3.16657 27.6788C2.16764 27.6777 1.1965 27.1597 0.661104 26.234C-0.124579 24.8756 0.320672 23.145 1.65139 22.3291L1.65139 12.9439C0.320672 12.128 -0.124579 10.3974 0.661104 9.03897C1.18851 8.12712 2.13875 7.61089 3.12186 7.59459L3.16657 7.59419C3.6335 7.59366 4.10651 7.70605 4.54392 7.94251L12.6864 3.24998C12.7285 1.70752 13.9818 0.466913 15.5312 0.441837L15.5791 0.441448C17.1504 0.441448 18.4293 1.69166 18.4718 3.24996L26.614 7.94263C27.0375 7.71364 27.4944 7.60096 27.9469 7.59449L27.9916 7.59419C28.9905 7.59534 29.9617 8.1133 30.4971 9.03897C31.2828 10.3974 30.8375 12.128 29.5068 12.9439L29.5068 22.3291C30.8375 23.145 31.2828 24.8756 30.4971 26.234C29.9697 27.1459 29.0194 27.6621 28.0363 27.6784L27.9916 27.6788C27.5247 27.6793 27.0517 27.567 26.6143 27.3305L18.4718 32.023C18.4297 33.5655 17.1763 34.8061 15.6269 34.8312L15.5791 34.8315ZM15.5791 4.70558L15.6166 4.70508C15.6197 4.70499 15.6228 4.7049 15.626 4.7048L15.6166 4.70507C15.6291 4.70474 15.6416 4.70424 15.654 4.70357L15.626 4.7048C15.6396 4.70434 15.6533 4.70368 15.6668 4.70283L15.654 4.70357C15.6667 4.70289 15.6794 4.70204 15.692 4.70102L15.6668 4.70283C15.6792 4.70205 15.6916 4.70111 15.7039 4.70001L15.692 4.70102C15.7032 4.70011 15.7143 4.69907 15.7254 4.6979L15.7039 4.70001C15.7175 4.69879 15.7311 4.69737 15.7445 4.69576L15.7254 4.6979C15.738 4.69657 15.7505 4.69507 15.763 4.69341L15.7445 4.69576C15.756 4.6944 15.7674 4.69289 15.7787 4.69125L15.763 4.69341C15.7772 4.69153 15.7912 4.68944 15.8052 4.68713L15.7787 4.69125C15.7902 4.68959 15.8016 4.68778 15.813 4.68584L15.8052 4.68713C15.8171 4.68517 15.829 4.68306 15.8408 4.68079L15.813 4.68584C15.8256 4.6837 15.838 4.68138 15.8505 4.67891L15.8408 4.68079C15.856 4.67788 15.8711 4.67471 15.8862 4.6713L15.8505 4.67891C15.8791 4.67319 15.9075 4.6666 15.9354 4.65914C15.9425 4.65729 15.9495 4.65535 15.9565 4.65337L15.9354 4.65914C15.947 4.65606 15.9585 4.65284 15.9699 4.64947L15.9565 4.65337C15.9668 4.65046 15.977 4.64744 15.9872 4.6443L15.9699 4.64947C16.5406 4.4813 16.9571 3.95423 16.9571 3.33005C16.9571 2.57037 16.3401 1.95453 15.5791 1.95453C14.8181 1.95453 14.2011 2.57037 14.2011 3.33005C14.2011 3.94743 14.6086 4.46981 15.1697 4.64385C15.1767 4.64606 15.1838 4.64819 15.1909 4.65026L15.1697 4.64385C15.1802 4.64711 15.1907 4.65024 15.2013 4.65325L15.1909 4.65026C15.2021 4.65356 15.2135 4.65671 15.2249 4.65972L15.2013 4.65325C15.2135 4.65671 15.2258 4.66002 15.2382 4.66315L15.2249 4.65972C15.2519 4.66687 15.2792 4.67321 15.3068 4.67873C15.3112 4.6796 15.3156 4.68046 15.32 4.6813L15.3068 4.67873C15.3197 4.68129 15.3325 4.68367 15.3455 4.68587L15.32 4.6813C15.3306 4.68331 15.3412 4.6852 15.3519 4.68697L15.3455 4.68587C15.357 4.68784 15.3686 4.68966 15.3802 4.69134L15.3519 4.68697C15.3661 4.68932 15.3804 4.69146 15.3947 4.69337L15.3802 4.69134C15.3913 4.69294 15.4024 4.69441 15.4136 4.69574L15.3947 4.69337C15.4074 4.69506 15.42 4.69657 15.4328 4.69791L15.4136 4.69574C15.4271 4.69736 15.4406 4.69878 15.4542 4.7L15.4328 4.69791C15.4439 4.69908 15.455 4.70012 15.4662 4.70102L15.4542 4.7C15.4666 4.7011 15.479 4.70205 15.4914 4.70283L15.4662 4.70102C15.4788 4.70204 15.4914 4.7029 15.5041 4.70358L15.4914 4.70283C15.5049 4.70368 15.5185 4.70433 15.5322 4.70479L15.5041 4.70358C15.529 4.7049 15.5539 4.70558 15.5791 4.70558ZM20.0586 14.1459L25.1848 11.1916C25.1812 11.1772 25.1776 11.1628 25.1742 11.1484C25.1732 11.144 25.1721 11.1395 25.171 11.135C25.1687 11.125 25.1665 11.1152 25.1643 11.1053C25.1627 11.0982 25.1612 11.0909 25.1596 11.0836C25.1578 11.0752 25.1561 11.0667 25.1543 11.0583C25.1525 11.0493 25.1507 11.0404 25.149 11.0315C25.1441 11.0058 25.1394 10.9802 25.1352 10.9544C25.1341 10.9479 25.1331 10.9414 25.132 10.9348C25.1221 10.8719 25.1143 10.809 25.1085 10.7461C25.1079 10.739 25.1073 10.7319 25.1067 10.7248C25.1045 10.6982 25.1026 10.6715 25.1011 10.6449C25.101 10.6426 25.1009 10.6403 25.1008 10.6381L25.1011 10.6449C25.1004 10.6311 25.0997 10.6174 25.0992 10.6036C25.0988 10.5954 25.0985 10.587 25.0982 10.5787C25.0979 10.5695 25.0977 10.5604 25.0975 10.5513C25.0973 10.5443 25.0972 10.5373 25.0971 10.5304C25.097 10.5234 25.0969 10.5165 25.0968 10.5096C25.0968 10.5033 25.0968 10.497 25.0968 10.4906L25.0968 10.5096C25.0956 10.3557 25.1067 10.2024 25.1297 10.0512C25.1335 10.026 25.1377 10.0009 25.1422 9.97589C25.1441 9.96496 25.1461 9.95407 25.1482 9.94319C25.1526 9.92011 25.1573 9.89705 25.1623 9.87405C25.1641 9.86577 25.1659 9.85747 25.1678 9.84919C25.1691 9.84321 25.1705 9.83727 25.1719 9.83134C25.1732 9.82578 25.1745 9.82019 25.1758 9.8146C25.1784 9.80394 25.181 9.79337 25.1836 9.78281C25.1915 9.7513 25.1999 9.71987 25.2089 9.6886C25.2153 9.66617 25.222 9.64379 25.229 9.62151C25.2314 9.61394 25.2337 9.60642 25.2362 9.59891C25.2381 9.59275 25.2402 9.58657 25.2422 9.5804C25.2445 9.57324 25.2469 9.56607 25.2494 9.55891C25.2527 9.54916 25.256 9.53947 25.2594 9.52979C25.261 9.52505 25.2627 9.5203 25.2644 9.51556C25.2678 9.50609 25.2712 9.49667 25.2746 9.48727C25.2753 9.4853 25.2761 9.48326 25.2769 9.48122C25.2814 9.46905 25.2859 9.45701 25.2905 9.445C25.3014 9.41677 25.3127 9.3887 25.3245 9.3608C25.3339 9.33852 25.3435 9.31635 25.3535 9.29431C25.3569 9.28685 25.3603 9.27936 25.3637 9.27189C25.3659 9.26709 25.3681 9.26235 25.3704 9.2576C25.3751 9.24753 25.3799 9.23745 25.3847 9.2274C25.3881 9.2204 25.3915 9.21345 25.3949 9.20651C25.398 9.20018 25.4012 9.19385 25.4043 9.18753C25.4085 9.17927 25.4127 9.17105 25.4169 9.16285C25.4195 9.15779 25.4221 9.15265 25.4248 9.14752C25.4292 9.13902 25.4337 9.13062 25.4381 9.12224C25.4407 9.11752 25.4432 9.1128 25.4457 9.10809C25.4583 9.08483 25.4712 9.06172 25.4845 9.03878L18.0856 4.77458C18.0841 4.77711 18.0827 4.77963 18.0812 4.78215C18.0675 4.80557 18.0536 4.82874 18.0393 4.8517C18.0368 4.8556 18.0344 4.8595 18.032 4.86339C18.0265 4.87203 18.021 4.88067 18.0155 4.88928C18.0119 4.89487 18.0083 4.90039 18.0047 4.9059C18.0002 4.91277 17.9957 4.91969 17.9911 4.92659C17.9869 4.93287 17.9827 4.93907 17.9785 4.94527C17.9758 4.94931 17.973 4.95338 17.9703 4.95743C17.9254 5.02293 17.878 5.08648 17.8281 5.14794C17.8135 5.16587 17.7987 5.18366 17.7837 5.20126C17.7698 5.21761 17.7556 5.23381 17.7413 5.24985C17.7345 5.25747 17.7277 5.26503 17.7209 5.27257C17.717 5.27676 17.7132 5.28096 17.7093 5.28516C17.7053 5.28947 17.7014 5.29376 17.6974 5.29803C17.6809 5.31574 17.6641 5.33327 17.6471 5.35059C17.5938 5.40496 17.5383 5.45727 17.4808 5.50735L17.4757 5.51181C17.4572 5.52787 17.4384 5.54369 17.4195 5.55928C17.4164 5.5618 17.4134 5.56428 17.4104 5.56675C17.4033 5.57251 17.3962 5.57829 17.389 5.58404C17.3826 5.58921 17.3761 5.59434 17.3696 5.59944C17.3661 5.60224 17.3625 5.60502 17.359 5.6078C17.3356 5.62602 17.312 5.64387 17.2881 5.66137C17.2866 5.66245 17.2852 5.66346 17.2838 5.66447C17.2766 5.66973 17.2693 5.675 17.262 5.68024C17.2445 5.69272 17.2269 5.70498 17.2092 5.71706L17.2018 5.72208C17.1522 5.75572 17.1014 5.78785 17.0496 5.81842C17.0446 5.8214 17.0395 5.82436 17.0344 5.82731C17.0134 5.83956 16.9921 5.85156 16.9707 5.8633C16.9621 5.86803 16.9535 5.8727 16.9449 5.87732C16.9398 5.88005 16.9347 5.88276 16.9296 5.88546C16.9237 5.88857 16.9178 5.89166 16.9118 5.89474C16.9017 5.89999 16.8916 5.90517 16.8814 5.9103C16.8773 5.91236 16.8732 5.91443 16.869 5.9165C16.8456 5.92814 16.8221 5.93946 16.7984 5.95046C16.793 5.95299 16.7875 5.95552 16.782 5.95804C16.7577 5.96914 16.7332 5.9799 16.7086 5.99032C16.6844 6.0006 16.6599 6.01055 16.6353 6.02019C16.6128 6.02902 16.5901 6.03758 16.5672 6.04587C16.5617 6.04785 16.5563 6.04981 16.5508 6.05175C16.5403 6.05552 16.5296 6.05924 16.5189 6.06291C16.5162 6.06382 16.5137 6.0647 16.5111 6.06558C16.4994 6.06955 16.4876 6.07347 16.4757 6.07732C16.4713 6.07876 16.4668 6.0802 16.4624 6.08162C16.4505 6.08542 16.4385 6.08915 16.4266 6.09281C16.4238 6.09364 16.4211 6.09446 16.4184 6.09528C16.4085 6.09827 16.3985 6.10122 16.3886 6.10412C16.38 6.1066 16.3715 6.10904 16.3629 6.11144C16.3607 6.11204 16.3586 6.11264 16.3565 6.11323L16.3566 11.6762C17.9397 11.8716 19.2994 12.8132 20.0586 14.1459ZM11.3632 14.2632C12.0715 12.9353 13.3524 11.9947 14.8408 11.7208L14.8408 6.12379C14.8241 6.11941 14.8075 6.11489 14.7909 6.11022C14.7836 6.10815 14.7763 6.10607 14.7691 6.10396C14.7132 6.08773 14.658 6.06985 14.6035 6.05039C14.5987 6.04866 14.5939 6.04692 14.589 6.04517C14.5784 6.04129 14.5678 6.03736 14.5572 6.03338C14.5535 6.03197 14.5497 6.03055 14.546 6.02912C14.5359 6.02527 14.5258 6.02137 14.5158 6.01742C14.5107 6.01539 14.5056 6.01335 14.5004 6.0113C14.489 6.0067 14.4775 6.00203 14.4661 5.99729C14.463 5.99596 14.4598 5.99462 14.4566 5.99328C14.4312 5.9826 14.406 5.97159 14.381 5.96024C14.3742 5.95713 14.3674 5.95402 14.3607 5.95089C14.3406 5.94158 14.3206 5.93203 14.3008 5.92226C14.2885 5.91618 14.2762 5.91004 14.264 5.9038C14.2567 5.9001 14.2494 5.89634 14.2421 5.89255C14.2391 5.89095 14.2361 5.88937 14.2331 5.88779C14.2216 5.88175 14.2101 5.87562 14.1986 5.86942C14.1946 5.8672 14.1905 5.86495 14.1864 5.8627C14.1793 5.85885 14.1724 5.85499 14.1654 5.85111C14.1434 5.83874 14.1215 5.82611 14.0998 5.81319C14.095 5.81039 14.0904 5.80759 14.0857 5.80477C14.0767 5.79934 14.0677 5.79384 14.0587 5.7883C14.0531 5.78485 14.0475 5.78137 14.042 5.77788C14.0364 5.77441 14.0309 5.7709 14.0253 5.76737C14.0189 5.76327 14.0125 5.7592 14.0062 5.7551C13.9859 5.74192 13.9657 5.72846 13.9456 5.71476C13.9386 5.70996 13.9316 5.70512 13.9246 5.70025C13.8888 5.67532 13.8537 5.64961 13.8191 5.62314C13.8124 5.61804 13.8057 5.61288 13.7991 5.60769L13.7937 5.60349C13.7657 5.5815 13.738 5.559 13.7108 5.53601C13.7041 5.53033 13.6974 5.52463 13.6907 5.51891C13.6838 5.51294 13.6769 5.50696 13.6701 5.50094C13.6653 5.49682 13.6606 5.49266 13.6559 5.48848C13.6521 5.48507 13.6483 5.48169 13.6446 5.4783C13.59 5.42931 13.5373 5.37827 13.4866 5.32531C13.482 5.32048 13.4773 5.31559 13.4727 5.31068C13.4518 5.28857 13.4313 5.26613 13.4111 5.24338L13.4099 5.24194C13.3744 5.20185 13.34 5.16076 13.3067 5.11873C13.3017 5.11244 13.2967 5.10609 13.2918 5.09973C13.2872 5.09383 13.2827 5.08793 13.2782 5.082C13.2734 5.07578 13.2686 5.06953 13.2639 5.06326C13.2604 5.05859 13.257 5.05395 13.2535 5.04931C13.2473 5.04103 13.2412 5.03266 13.235 5.02424C13.2313 5.0191 13.2276 5.01397 13.224 5.00883C13.2191 5.00215 13.2144 4.99547 13.2097 4.98877C13.2057 4.983 13.2016 4.97717 13.1975 4.97132C13.1922 4.96364 13.1869 4.95597 13.1817 4.94827C13.1781 4.9429 13.1744 4.93749 13.1708 4.93207C13.1398 4.88575 13.1101 4.83849 13.0818 4.79034L13.0726 4.77458L5.67367 9.03871C5.6893 9.06582 5.70418 9.0926 5.71862 9.11958C5.72359 9.12887 5.72851 9.13817 5.73336 9.14749C5.73701 9.15449 5.74062 9.16147 5.74419 9.16847C5.7463 9.17259 5.74839 9.17672 5.75048 9.18085C5.7633 9.20626 5.77576 9.23186 5.78782 9.25763C5.79006 9.2624 5.79227 9.26714 5.79446 9.2719C5.79871 9.28109 5.80291 9.29032 5.80706 9.29956C5.80901 9.3039 5.81094 9.30823 5.81286 9.31257C5.81711 9.32217 5.82132 9.3318 5.82547 9.34146C5.84285 9.38187 5.85929 9.42261 5.87478 9.46369C5.88962 9.50302 5.90361 9.54268 5.91672 9.58261C5.91833 9.58752 5.91995 9.5925 5.92156 9.59749C5.94108 9.65802 5.95859 9.71914 5.97407 9.78078C5.97584 9.7878 5.97758 9.79482 5.97929 9.80185C5.98512 9.82581 5.99064 9.84984 5.99586 9.87395C5.99713 9.87981 5.99837 9.88564 5.9996 9.89147C6.00195 9.90268 6.00425 9.91395 6.00648 9.92523C6.00751 9.93044 6.00852 9.93565 6.00953 9.94086C6.01751 9.98247 6.02459 10.0243 6.03075 10.0662C6.03294 10.0811 6.03501 10.096 6.03697 10.111C6.03958 10.1309 6.04198 10.1509 6.04418 10.1709C6.04878 10.2128 6.05248 10.2549 6.05524 10.2971C6.05579 10.3055 6.0563 10.3138 6.05678 10.3222C6.05714 10.3286 6.05749 10.335 6.05781 10.3415C6.05918 10.3687 6.06015 10.3959 6.06075 10.4231C6.06138 10.452 6.06157 10.4808 6.06134 10.5097C6.06128 10.5166 6.0612 10.5235 6.06109 10.5305C6.06101 10.5356 6.06092 10.5407 6.06081 10.5458C6.06024 10.5734 6.05926 10.6012 6.05788 10.6289C6.05739 10.6387 6.05685 10.6486 6.05626 10.6584C6.05586 10.6652 6.05543 10.6719 6.05498 10.6786C6.05461 10.6841 6.05423 10.6895 6.05383 10.695C6.05152 10.7268 6.04866 10.7586 6.04527 10.7904C6.04522 10.7909 6.04517 10.7914 6.04511 10.7919L6.04527 10.7904C6.03829 10.856 6.02903 10.9215 6.01745 10.9868C6.01633 10.9931 6.01518 10.9994 6.01402 11.0058C6.01254 11.0138 6.01102 11.0219 6.00947 11.0299C6.00484 11.0539 5.9999 11.0778 5.99465 11.1017C5.99028 11.1216 5.98568 11.1415 5.98086 11.1614L11.3632 14.2632ZM28.68 11.6745C29.3391 11.2947 29.5649 10.4534 29.1844 9.79551C28.8039 9.13761 27.9611 8.9122 27.302 9.29204C26.7825 9.59145 26.5322 10.1776 26.6358 10.7346C26.6368 10.74 26.6378 10.7454 26.6389 10.7509L26.6358 10.7346C26.6377 10.7449 26.6398 10.7552 26.6419 10.7655L26.6389 10.7509C26.6415 10.7641 26.6444 10.7773 26.6474 10.7904L26.6419 10.7655C26.6449 10.7794 26.648 10.7932 26.6514 10.8071L26.6474 10.7904C26.6499 10.8013 26.6525 10.8122 26.6553 10.823L26.6514 10.8071C26.6542 10.8189 26.6573 10.8307 26.6605 10.8424L26.6553 10.823C26.6586 10.8359 26.6621 10.8487 26.6658 10.8615L26.6605 10.8424C26.6634 10.8534 26.6666 10.8643 26.6698 10.8752L26.6658 10.8615C26.6774 10.902 26.691 10.9421 26.7065 10.9817C26.7086 10.9872 26.7108 10.9928 26.7131 10.9984L26.7065 10.9817C26.7114 10.9942 26.7164 11.0067 26.7217 11.0191L26.7131 10.9984C26.7177 11.0098 26.7225 11.0211 26.7275 11.0325L26.7217 11.0191C26.7262 11.0296 26.7308 11.04 26.7355 11.0504L26.7275 11.0325C26.7334 11.0459 26.7395 11.0593 26.7458 11.0726L26.7355 11.0504C26.7405 11.0615 26.7458 11.0726 26.7511 11.0836L26.7458 11.0726C26.7511 11.0836 26.7564 11.0945 26.762 11.1054L26.7511 11.0836C26.7577 11.0971 26.7645 11.1104 26.7715 11.1237L26.762 11.1054C26.7699 11.1211 26.7782 11.1366 26.7869 11.1521L26.7976 11.171C26.8165 11.2037 26.8366 11.2353 26.8577 11.2659C26.8607 11.2703 26.8638 11.2746 26.8668 11.2789L26.8577 11.2659C26.8725 11.2873 26.8878 11.3081 26.9036 11.3285C26.9064 11.3321 26.9092 11.3356 26.9119 11.3391L26.9036 11.3285C26.9101 11.3367 26.9166 11.3449 26.9232 11.3531L26.9119 11.3391C26.9209 11.3503 26.9299 11.3614 26.9392 11.3723L26.9232 11.3531C26.9307 11.3622 26.9383 11.3713 26.946 11.3803L26.9392 11.3723C26.9461 11.3804 26.9531 11.3885 26.9602 11.3965L26.946 11.3803C26.9645 11.4018 26.9835 11.4226 27.0032 11.4428C27.0174 11.4574 27.0318 11.4716 27.0465 11.4854C27.0602 11.4983 27.0741 11.5108 27.0882 11.5231C27.0959 11.5296 27.1035 11.536 27.1112 11.5424L27.0882 11.5231C27.0973 11.5309 27.1064 11.5387 27.1157 11.5463L27.1112 11.5424C27.5422 11.8991 28.1668 11.9703 28.68 11.6745ZM4.1224 11.4752L4.1335 11.4644C4.14757 11.4506 4.16135 11.4364 4.17486 11.422C4.17674 11.4199 4.17856 11.418 4.18037 11.416L4.17486 11.422C4.18333 11.4129 4.19169 11.4037 4.19993 11.3943L4.18037 11.416C4.18937 11.4063 4.19825 11.3963 4.20699 11.3863L4.19993 11.3943C4.2085 11.3846 4.21693 11.3748 4.22525 11.3648L4.20699 11.3863C4.21447 11.3777 4.22186 11.369 4.22915 11.3602L4.22525 11.3648C4.23228 11.3564 4.23921 11.3479 4.24606 11.3393L4.22915 11.3602C4.23877 11.3485 4.24822 11.3367 4.2575 11.3247L4.24606 11.3393C4.25384 11.3295 4.2615 11.3196 4.26903 11.3095L4.2575 11.3247C4.26447 11.3157 4.27134 11.3065 4.27812 11.2973L4.26903 11.3095C4.27634 11.2998 4.28353 11.2899 4.29061 11.28L4.27812 11.2973C4.2858 11.2868 4.29336 11.2762 4.30079 11.2654L4.29061 11.28C4.31542 11.245 4.33877 11.2087 4.36055 11.171C4.36419 11.1647 4.36778 11.1584 4.37131 11.1521L4.36055 11.171C4.37675 11.143 4.39184 11.1147 4.40585 11.0861C4.40928 11.0791 4.41264 11.0721 4.41594 11.065L4.40585 11.0861C4.40983 11.078 4.41372 11.0698 4.41753 11.0617L4.41594 11.065C4.42136 11.0535 4.4266 11.0419 4.43167 11.0302C4.43316 11.0268 4.43464 11.0234 4.43611 11.02L4.43167 11.0302C4.45385 10.9793 4.47278 10.9274 4.48846 10.8749C4.48943 10.8717 4.49038 10.8684 4.49132 10.8652L4.48846 10.8749C4.49201 10.8631 4.49539 10.8512 4.4986 10.8392L4.49132 10.8652C4.49501 10.8525 4.49851 10.8398 4.50181 10.827L4.4986 10.8392C4.50166 10.8279 4.50456 10.8165 4.50732 10.8051L4.50181 10.827C4.50844 10.8014 4.5143 10.7757 4.5194 10.7499C4.52018 10.7464 4.52087 10.7428 4.52154 10.7393L4.5194 10.7499C4.6306 10.1884 4.38048 9.5942 3.85617 9.29204C3.19709 8.9122 2.35433 9.13761 1.97381 9.79551C1.59329 10.4534 1.81911 11.2947 2.47819 11.6745C3.02219 11.988 3.69133 11.8892 4.1224 11.4752ZM5.18481 22.718L8.46748 20.8261C7.90932 20.1401 7.57481 19.2655 7.57481 18.3129C7.57481 16.8793 8.33239 15.6224 9.46972 14.9192L5.25144 12.4881C5.23434 12.5058 5.21705 12.5233 5.19956 12.5406C5.16931 12.5704 5.13849 12.5994 5.10712 12.6277C4.97983 12.7425 4.84353 12.8447 4.70014 12.9339C4.6443 12.9687 4.5874 13.0014 4.52954 13.0322L4.52776 13.0331C4.50147 13.0471 4.47499 13.0606 4.44832 13.0737C4.40996 13.0926 4.37125 13.1105 4.33219 13.1277C4.31906 13.1334 4.30591 13.139 4.29272 13.1446C4.26283 13.1572 4.23271 13.1692 4.2024 13.1808C4.18294 13.1882 4.16347 13.1954 4.14393 13.2024C4.10732 13.2155 4.07046 13.2278 4.03336 13.2395C4.01072 13.2465 3.98802 13.2533 3.96523 13.2599C3.92516 13.2713 3.88484 13.2819 3.8443 13.2917C3.8202 13.2975 3.79599 13.303 3.77172 13.3082C3.74848 13.3131 3.72517 13.3178 3.70179 13.3222C3.69705 13.3231 3.69238 13.324 3.6877 13.3248C3.67007 13.328 3.65235 13.3311 3.63461 13.334C3.61114 13.3379 3.58767 13.3414 3.56415 13.3447C3.56162 13.3451 3.55914 13.3454 3.55666 13.3457C3.55178 13.3464 3.54684 13.3471 3.5419 13.3477C3.5144 13.3513 3.48688 13.3545 3.45931 13.3573C3.43268 13.3601 3.40608 13.3624 3.37943 13.3644C3.37323 13.3648 3.36703 13.3653 3.36083 13.3657C3.33378 13.3675 3.30668 13.369 3.27954 13.3701C3.27403 13.3703 3.26853 13.3705 3.26303 13.3707C3.2462 13.3713 3.22936 13.3717 3.21251 13.372L3.1678 13.3724L3.16718 13.3724L3.16718 21.9006H3.1678C3.25728 21.9007 3.34654 21.905 3.43528 21.9133C3.45114 21.9148 3.46696 21.9164 3.48276 21.9182C3.51894 21.9221 3.55506 21.9268 3.59107 21.9322C3.61621 21.9359 3.64127 21.94 3.66627 21.9443C3.69972 21.9502 3.73304 21.9566 3.76623 21.9637C3.79288 21.9693 3.81939 21.9753 3.8458 21.9817L3.8936 21.9936C3.98304 22.0168 4.07136 22.0442 4.15825 22.0757C4.17838 22.0831 4.19836 22.0906 4.21826 22.0983C4.25975 22.1144 4.30054 22.1313 4.34094 22.1492C4.34783 22.1522 4.35478 22.1553 4.36173 22.1585C4.37837 22.166 4.39488 22.1736 4.41131 22.1814C4.4425 22.1962 4.47344 22.2116 4.50412 22.2275C4.58975 22.2719 4.67334 22.3207 4.75451 22.3737C4.77502 22.3871 4.79536 22.4008 4.81555 22.4147C4.82379 22.4204 4.83203 22.4262 4.84023 22.432C4.86573 22.45 4.89093 22.4684 4.91586 22.4872C5.00961 22.5581 5.09947 22.6351 5.18481 22.718ZM25.996 22.6965L26.0115 22.6817C26.0615 22.6348 26.1131 22.5899 26.166 22.547C26.2595 22.4712 26.3572 22.4018 26.4584 22.3388L26.4599 22.3379C26.482 22.3242 26.5042 22.3108 26.5266 22.2977C26.5319 22.2946 26.5372 22.2916 26.5425 22.2885L26.5266 22.2977C26.5699 22.2724 26.6137 22.2483 26.6581 22.2254C26.7215 22.1926 26.7859 22.1623 26.8513 22.1344C26.9494 22.0925 27.0497 22.0561 27.1517 22.0253C27.1587 22.0232 27.1657 22.0211 27.1728 22.019C27.1955 22.0123 27.2184 22.0059 27.2413 21.9997C27.2789 21.9897 27.3166 21.9804 27.3544 21.9719C27.3633 21.9699 27.3722 21.9679 27.3812 21.966C27.4066 21.9605 27.4321 21.9553 27.4577 21.9505C27.46 21.9501 27.4622 21.9497 27.4645 21.9493C27.4773 21.9469 27.4901 21.9446 27.5029 21.9424L27.4645 21.9493C27.4841 21.9457 27.5037 21.9422 27.5234 21.939C27.5494 21.9347 27.5754 21.9308 27.6015 21.9273C27.6292 21.9235 27.657 21.9201 27.6848 21.9171C27.6896 21.9166 27.6944 21.9161 27.6993 21.9156C27.7253 21.913 27.7514 21.9107 27.7775 21.9087C27.7841 21.9082 27.7907 21.9077 27.7973 21.9073C27.8232 21.9055 27.8491 21.9041 27.8751 21.9031C27.8818 21.9028 27.8886 21.9025 27.8953 21.9023C27.8984 21.9022 27.9013 21.9021 27.9043 21.902C27.9331 21.9011 27.962 21.9007 27.9909 21.9006L27.9848 21.9008L27.9904 21.9006L27.9909 21.9006L27.9909 13.3724H27.9904C27.9371 13.3723 27.8839 13.3708 27.8308 13.3678C27.8087 13.3665 27.7866 13.365 27.7646 13.3633C27.7349 13.3609 27.7051 13.3581 27.6755 13.3548C27.6445 13.3514 27.6136 13.3475 27.5828 13.3431C27.5619 13.3401 27.5411 13.3369 27.5203 13.3335C27.4952 13.3293 27.4702 13.3249 27.4452 13.3201C27.4213 13.3155 27.3974 13.3106 27.3736 13.3054C27.3055 13.2905 27.2378 13.2732 27.1709 13.2535C27.0931 13.2305 27.0167 13.2045 26.9414 13.1753C26.9143 13.1648 26.8874 13.1539 26.8606 13.1425C26.8521 13.1389 26.8435 13.1353 26.835 13.1316C26.7993 13.1161 26.7639 13.0999 26.7288 13.0829C26.7105 13.0741 26.6923 13.0651 26.6741 13.0558C26.6178 13.0271 26.5622 12.9966 26.5076 12.9641C26.4911 12.9542 26.4746 12.9442 26.4582 12.934L26.4168 12.9078C26.403 12.8989 26.3893 12.8899 26.3756 12.8807C26.2158 12.7736 26.0658 12.6499 25.9283 12.5103L20.7061 15.5198C22.3688 15.7282 23.6591 17.1315 23.6869 18.8412L23.6873 18.8975C23.6873 19.6742 23.4268 20.3901 22.9881 20.963L25.996 22.6965ZM15.4008 20.7888H20.2768C21.3232 20.7888 22.1715 19.942 22.1715 18.8975C22.1715 17.8529 21.3232 17.0061 20.2768 17.0061L19.2329 17.0061L19.1768 16.3102C19.0336 14.5328 17.5413 13.1517 15.7431 13.1517C14.3066 13.1517 13.0364 14.0374 12.5278 15.3528L12.3406 15.8369L11.571 15.8369C10.2011 15.8369 9.0906 16.9455 9.0906 18.3129C9.0906 19.6803 10.2011 20.7888 11.571 20.7888H15.2757C15.2925 20.7888 15.309 20.7887 15.325 20.7883L15.3413 20.788L15.3792 20.7887L15.4008 20.7888ZM13.0726 30.4983L13.0809 30.4842C13.0929 30.4638 13.1051 30.4435 13.1176 30.4233C13.1215 30.4171 13.1254 30.4109 13.1293 30.4048C13.1327 30.3993 13.1363 30.3937 13.1398 30.3882C13.1441 30.3815 13.1484 30.3748 13.1528 30.3682C13.19 30.3112 13.2292 30.2555 13.2702 30.2013C13.2904 30.1747 13.311 30.1485 13.332 30.1227C13.366 30.0809 13.4011 30.0402 13.4373 30.0004C13.4407 29.9968 13.444 29.9931 13.4473 29.9895C13.454 29.9822 13.4608 29.975 13.4675 29.9678C13.4712 29.9639 13.4747 29.9601 13.4783 29.9564C13.4852 29.9491 13.4922 29.9418 13.4993 29.9345C13.5613 29.8706 13.6261 29.8095 13.6937 29.7515C13.7241 29.7254 13.7551 29.7 13.7866 29.6751C13.7907 29.6719 13.7949 29.6685 13.7991 29.6653C13.8067 29.6594 13.8142 29.6536 13.8217 29.6479C13.8284 29.6427 13.8352 29.6376 13.842 29.6325C13.8464 29.6291 13.8509 29.6258 13.8554 29.6225C13.8753 29.6077 13.8954 29.5932 13.9157 29.579C13.9212 29.5751 13.9267 29.5712 13.9323 29.5674C13.9517 29.554 13.9713 29.5407 13.9911 29.5277C13.9997 29.5221 14.0084 29.5165 14.017 29.5109C14.0416 29.4952 14.0663 29.4798 14.0913 29.4649C14.0968 29.4615 14.1024 29.4582 14.108 29.4549C14.1286 29.4427 14.1494 29.4308 14.1703 29.4192C14.176 29.416 14.1817 29.4128 14.1874 29.4097C14.1946 29.4058 14.2017 29.4019 14.2088 29.3981C14.2313 29.386 14.2539 29.3742 14.2768 29.3627C14.2804 29.3609 14.284 29.3591 14.2876 29.3573C14.2963 29.3529 14.305 29.3486 14.3138 29.3444C14.3201 29.3413 14.3265 29.3382 14.3329 29.3352C14.3541 29.3251 14.3754 29.3152 14.3969 29.3056C14.4182 29.2961 14.4396 29.2868 14.4611 29.2778C14.4859 29.2674 14.511 29.2573 14.5362 29.2476C14.5644 29.2367 14.5929 29.2263 14.6215 29.2162C14.6254 29.2149 14.6294 29.2135 14.6333 29.2122C14.6575 29.2038 14.682 29.1957 14.7066 29.188C14.7123 29.1862 14.7179 29.1844 14.7235 29.1827C14.7314 29.1802 14.7394 29.1778 14.7474 29.1754C14.7547 29.1732 14.7619 29.1711 14.7691 29.169C14.7778 29.1665 14.7865 29.164 14.7952 29.1616C14.7992 29.1605 14.8032 29.1594 14.8071 29.1583C14.8147 29.1562 14.8223 29.1541 14.8299 29.1521L14.8408 29.1493V22.302L11.571 22.3019C10.9039 22.3019 10.275 22.1387 9.72217 21.8502L5.9571 24.0202C5.96466 24.0474 5.9718 24.0747 5.97853 24.102C5.98446 24.1262 5.99008 24.1504 5.99538 24.1746C6.00033 24.1973 6.00499 24.2199 6.00937 24.2426C6.01104 24.2512 6.01266 24.2598 6.01425 24.2684C6.01582 24.277 6.01737 24.2857 6.01888 24.2943C6.02971 24.3565 6.03845 24.4188 6.04512 24.4812C6.04634 24.4925 6.04749 24.5039 6.04857 24.5153C6.05056 24.5362 6.05231 24.557 6.05383 24.5779C6.05434 24.585 6.05483 24.5921 6.0553 24.5992C6.05593 24.6088 6.05651 24.6185 6.05704 24.6281C6.05741 24.6347 6.05775 24.6413 6.05807 24.6479C6.05939 24.6751 6.06032 24.7024 6.06086 24.7296C6.06102 24.7375 6.06115 24.7455 6.06124 24.7535C6.06131 24.7595 6.06136 24.7656 6.06139 24.7717L6.06124 24.7535C6.06167 24.7905 6.06139 24.8275 6.06039 24.8645C6.05977 24.8878 6.05886 24.911 6.05767 24.9343C6.05732 24.9412 6.05694 24.9481 6.05654 24.955C6.05613 24.962 6.0557 24.9689 6.05525 24.9759C6.05152 25.0326 6.04613 25.0891 6.03909 25.1454C6.03706 25.1617 6.03489 25.1779 6.03258 25.1941C6.03127 25.2033 6.02991 25.2126 6.0285 25.2219L6.03258 25.1941C6.02591 25.241 6.01808 25.2877 6.00912 25.3342C6.0081 25.3395 6.00707 25.3448 6.00602 25.3501C5.99744 25.3933 5.98789 25.4363 5.97736 25.479C5.96998 25.509 5.96213 25.5388 5.9538 25.5685C5.95221 25.5742 5.95061 25.5798 5.949 25.5854C5.94785 25.5894 5.94667 25.5935 5.94549 25.5976L5.949 25.5854C5.93986 25.6173 5.93018 25.649 5.91995 25.6805C5.91852 25.6849 5.91708 25.6893 5.91563 25.6937C5.91247 25.7033 5.90926 25.7129 5.906 25.7224C5.90462 25.7264 5.90323 25.7305 5.90182 25.7346C5.89273 25.7608 5.88325 25.787 5.8734 25.813C5.85592 25.8591 5.83727 25.9048 5.81744 25.95C5.80303 25.9829 5.788 26.0155 5.77235 26.0479C5.76857 26.0557 5.76472 26.0636 5.76083 26.0714C5.75773 26.0777 5.75462 26.0839 5.7515 26.0901C5.74751 26.098 5.74345 26.106 5.73935 26.114C5.73679 26.1189 5.73423 26.1239 5.73164 26.1288C5.7272 26.1373 5.72273 26.1458 5.71821 26.1542C5.70393 26.1809 5.68917 26.2074 5.67399 26.2337L5.67367 26.2343L13.0726 30.4983ZM18.0856 30.4983L25.4845 26.2343C25.4724 26.2134 25.4606 26.1923 25.4491 26.1711C25.446 26.1654 25.443 26.1598 25.4399 26.1541C25.4355 26.1458 25.431 26.1373 25.4265 26.1288C25.424 26.1239 25.4214 26.1189 25.4188 26.114C25.4142 26.105 25.4096 26.096 25.4051 26.0869C25.4028 26.0824 25.4005 26.0778 25.3982 26.0732C25.3937 26.0642 25.3893 26.0551 25.385 26.0461C25.3816 26.0392 25.3783 26.0322 25.375 26.0252C25.3736 26.0224 25.3723 26.0195 25.371 26.0167L25.375 26.0252C25.3686 26.0118 25.3624 25.9983 25.3563 25.9848C25.3461 25.9625 25.3363 25.9401 25.3267 25.9175L25.3256 25.9149C25.3005 25.8555 25.2774 25.7954 25.2564 25.7345C25.255 25.7305 25.2536 25.7264 25.2522 25.7224C25.2489 25.7129 25.2457 25.7033 25.2426 25.6937C25.2411 25.6893 25.2397 25.6849 25.2382 25.6805C25.2353 25.6715 25.2324 25.6625 25.2296 25.6535C25.2225 25.6309 25.2157 25.6082 25.2092 25.5854C25.2076 25.5798 25.206 25.5742 25.2044 25.5685C25.1961 25.5388 25.1882 25.509 25.1808 25.479C25.1741 25.4518 25.1678 25.4246 25.1619 25.3972C25.1605 25.3908 25.1592 25.3844 25.1578 25.3779C25.1525 25.3526 25.1476 25.3272 25.143 25.3018C25.1393 25.2815 25.1359 25.2611 25.1326 25.2407L25.1315 25.2336C25.1088 25.0882 25.0971 24.9409 25.0968 24.7929C25.0967 24.7859 25.0968 24.7788 25.0968 24.7718C25.0968 24.7656 25.0969 24.7595 25.0969 24.7534L25.0968 24.7718C25.0969 24.7577 25.097 24.7436 25.0973 24.7296C25.0975 24.7183 25.0978 24.707 25.0982 24.6958C25.0984 24.6886 25.0987 24.6815 25.099 24.6743C25.0993 24.6655 25.0997 24.6567 25.1001 24.6479C25.1004 24.6422 25.1007 24.6365 25.101 24.6308C25.1023 24.6059 25.104 24.5811 25.106 24.5563C25.1068 24.5471 25.1075 24.538 25.1084 24.5288C25.1141 24.4653 25.122 24.4017 25.132 24.3383C25.1328 24.3335 25.1335 24.3288 25.1343 24.3241C25.1389 24.2956 25.144 24.2671 25.1496 24.2386C25.1506 24.2335 25.1516 24.2284 25.1526 24.2233C25.1548 24.2122 25.1571 24.2012 25.1595 24.1901C25.1606 24.185 25.1617 24.1798 25.1628 24.1747C25.1646 24.1665 25.1664 24.1584 25.1682 24.1503C25.1703 24.1412 25.1724 24.132 25.1746 24.1229C25.181 24.0959 25.1879 24.069 25.1951 24.0421C25.1981 24.0308 25.2012 24.0195 25.2044 24.0082C25.2061 24.0023 25.2078 23.9963 25.2095 23.9904L21.7235 21.9813C21.2843 22.187 20.794 22.3019 20.2768 22.3019L16.3566 22.302L16.3566 29.1598C16.3709 29.1638 16.3851 29.1678 16.3993 29.172C16.4036 29.1733 16.4079 29.1745 16.4121 29.1758C16.4223 29.1789 16.4324 29.182 16.4425 29.1851C16.4476 29.1867 16.4528 29.1883 16.4579 29.19C16.4672 29.1929 16.4764 29.1959 16.4856 29.1989C16.4909 29.2006 16.4962 29.2024 16.5016 29.2042C16.5266 29.2126 16.5516 29.2214 16.5763 29.2304C16.5805 29.232 16.5848 29.2336 16.589 29.2351C16.5973 29.2382 16.6055 29.2413 16.6137 29.2445C16.6358 29.2529 16.6578 29.2616 16.6796 29.2705C16.7124 29.284 16.7448 29.2981 16.777 29.3127C16.7945 29.3206 16.8119 29.3288 16.8292 29.337C16.8351 29.3398 16.8409 29.3427 16.8468 29.3456C16.8829 29.3631 16.9184 29.3814 16.9536 29.4004C16.9626 29.4052 16.9716 29.4102 16.9806 29.4151C16.9847 29.4174 16.9888 29.4197 16.9929 29.422C17.0004 29.4262 17.0079 29.4304 17.0154 29.4347C17.0231 29.4391 17.0308 29.4436 17.0385 29.4481C17.0439 29.4512 17.0493 29.4544 17.0547 29.4576C17.0639 29.4631 17.073 29.4685 17.0821 29.4741C17.0849 29.4758 17.0877 29.4775 17.0905 29.4792C17.1013 29.4858 17.112 29.4925 17.1227 29.4992C17.1265 29.5016 17.1303 29.504 17.134 29.5064C17.1408 29.5107 17.1476 29.5151 17.1544 29.5195C17.1612 29.5239 17.168 29.5283 17.1748 29.5328C17.181 29.5369 17.1872 29.5411 17.1934 29.5452C17.1997 29.5494 17.2059 29.5537 17.2122 29.558C17.2209 29.5639 17.2295 29.5699 17.2381 29.5759C17.2622 29.5927 17.286 29.6099 17.3095 29.6275C17.3271 29.6406 17.3446 29.654 17.3619 29.6675C17.3678 29.6721 17.3736 29.6766 17.3794 29.6813C17.4221 29.7152 17.4639 29.7503 17.5046 29.7866C17.5094 29.7909 17.5143 29.7952 17.5191 29.7996C17.5283 29.8079 17.5373 29.8161 17.5462 29.8244C17.5493 29.8272 17.5523 29.83 17.5554 29.8329C17.5593 29.8366 17.5632 29.8402 17.5671 29.8439C17.5749 29.8512 17.5826 29.8587 17.5904 29.8661C17.5943 29.8699 17.5982 29.8737 17.6021 29.8775C17.6069 29.8822 17.6117 29.8869 17.6164 29.8916L17.6253 29.9004C17.6278 29.9029 17.6304 29.9055 17.6329 29.908C17.65 29.9252 17.6669 29.9426 17.6835 29.9602L17.6872 29.9641C17.7008 29.9785 17.7142 29.9931 17.7275 30.0078C17.7386 30.02 17.7496 30.0324 17.7605 30.0448C17.7763 30.063 17.792 30.0813 17.8074 30.0999C17.8115 30.1049 17.8157 30.1099 17.8198 30.1149C17.8258 30.1223 17.8318 30.1297 17.8378 30.1371C17.8524 30.1553 17.8669 30.1737 17.8811 30.1923C17.8854 30.198 17.8898 30.2038 17.8942 30.2096C17.898 30.2146 17.9017 30.2197 17.9055 30.2247C17.9115 30.2328 17.9174 30.2409 17.9234 30.2491C17.9266 30.2535 17.9297 30.2579 17.9329 30.2623C17.939 30.2707 17.945 30.2792 17.951 30.2878C17.954 30.292 17.9569 30.2962 17.9598 30.3004C17.9651 30.308 17.9703 30.3157 17.9756 30.3234C17.9795 30.3291 17.9833 30.3348 17.9871 30.3405C18.0161 30.3837 18.0438 30.4277 18.0704 30.4725L18.0856 30.4983ZM3.85617 25.981C4.37669 25.681 4.62697 25.0932 4.52176 24.5352C4.52106 24.5312 4.52028 24.5271 4.51947 24.5231L4.52176 24.5352C4.51752 24.5127 4.51269 24.4903 4.50729 24.4679C4.48389 24.3711 4.4497 24.276 4.40462 24.1844C4.40251 24.1801 4.40034 24.1757 4.39814 24.1714L4.40462 24.1844C4.39982 24.1746 4.39489 24.1649 4.38984 24.1552L4.39814 24.1714C4.39193 24.1591 4.38552 24.1469 4.37891 24.1347L4.36055 24.102C4.34178 24.0695 4.32183 24.038 4.30078 24.0076C4.29764 24.003 4.29448 23.9985 4.29129 23.994L4.30078 24.0076C4.29394 23.9977 4.28699 23.9879 4.27992 23.9782L4.29129 23.994C4.2839 23.9836 4.27639 23.9733 4.26876 23.9631L4.27992 23.9782C4.27174 23.967 4.2634 23.9559 4.25492 23.945L4.26876 23.9631C4.26217 23.9543 4.25548 23.9456 4.24871 23.9371L4.25492 23.945C4.24698 23.9348 4.2389 23.9247 4.2307 23.9147L4.24871 23.9371C4.24108 23.9274 4.23335 23.9179 4.2255 23.9084L4.2307 23.9147C4.21626 23.8972 4.20142 23.8801 4.18621 23.8634C3.75967 23.3949 3.04984 23.269 2.47819 23.5985C1.81911 23.9783 1.59329 24.8196 1.97381 25.4775C2.35433 26.1354 3.19709 26.3608 3.85617 25.981ZM29.1844 25.4775C29.5649 24.8196 29.3391 23.9783 28.68 23.5985C28.1576 23.2974 27.5198 23.3766 27.0883 23.75C27.0793 23.7577 27.0704 23.7655 27.0617 23.7735L27.0358 23.7978C27.0215 23.8115 27.0075 23.8256 26.9938 23.84C26.9904 23.8435 26.9871 23.8469 26.9839 23.8505L26.9938 23.84C26.9865 23.8476 26.9793 23.8553 26.9722 23.8631L26.9839 23.8505C26.9759 23.8589 26.9681 23.8675 26.9604 23.8762L26.9722 23.8631C26.9639 23.8722 26.9558 23.8814 26.9477 23.8907L26.9604 23.8762C26.9522 23.8855 26.9441 23.8949 26.9361 23.9044L26.9477 23.8907C26.9397 23.9 26.9318 23.9094 26.9241 23.9189L26.9361 23.9044C26.9114 23.9338 26.8879 23.9643 26.8655 23.996C26.8629 23.9996 26.8603 24.0033 26.8577 24.0071L26.8655 23.996C26.8415 24.03 26.8188 24.0654 26.7976 24.102C26.7913 24.1129 26.7852 24.1239 26.7792 24.1349C26.7769 24.1391 26.7746 24.1433 26.7724 24.1475L26.7792 24.1349C26.7725 24.1472 26.766 24.1595 26.7598 24.1719L26.7724 24.1475C26.7662 24.1592 26.7602 24.1709 26.7544 24.1827L26.7598 24.1719C26.7546 24.1823 26.7495 24.1926 26.7445 24.2031L26.7544 24.1827C26.7483 24.1951 26.7424 24.2075 26.7367 24.2199L26.7445 24.2031C26.7325 24.2285 26.7213 24.2542 26.7109 24.2801C26.7094 24.2838 26.7079 24.2875 26.7065 24.2912L26.7109 24.2801C26.6908 24.3302 26.6738 24.3811 26.6599 24.4326C26.6582 24.439 26.6565 24.4453 26.6549 24.4517L26.6599 24.4326C26.6567 24.4443 26.6537 24.456 26.6509 24.4677L26.6549 24.4517C26.652 24.463 26.6493 24.4743 26.6467 24.4857L26.6509 24.4677C26.6477 24.481 26.6447 24.4942 26.6419 24.5075L26.6467 24.4857C26.644 24.4978 26.6414 24.51 26.6389 24.5222L26.6419 24.5075C26.6396 24.5182 26.6375 24.5289 26.6355 24.5396L26.6389 24.5222C26.5273 25.084 26.7775 25.6786 27.302 25.981C27.9611 26.3608 28.8039 26.1354 29.1844 25.4775ZM15.5791 33.3185C16.3401 33.3185 16.9571 32.7026 16.9571 31.9429C16.9571 31.3614 16.5955 30.8641 16.0845 30.6629C16.0808 30.6613 16.077 30.6598 16.0732 30.6584L16.0845 30.6629C16.0751 30.6592 16.0656 30.6556 16.0561 30.6521L16.0732 30.6584C16.0621 30.6541 16.0508 30.65 16.0396 30.646L16.0561 30.6521C16.0454 30.6481 16.0347 30.6443 16.024 30.6407L16.0396 30.646C16.0283 30.642 16.0169 30.6382 16.0055 30.6345L16.024 30.6407C16.012 30.6366 16.0001 30.6327 15.988 30.629L16.0055 30.6345C15.9937 30.6307 15.9818 30.627 15.9699 30.6235L15.988 30.629C15.9776 30.6258 15.9671 30.6226 15.9565 30.6197L15.9699 30.6235C15.9584 30.6201 15.947 30.6169 15.9354 30.6138L15.9565 30.6197C15.9441 30.6161 15.9316 30.6128 15.919 30.6096L15.9354 30.6138C15.9074 30.6064 15.8791 30.5998 15.8505 30.5941C15.8445 30.5929 15.8384 30.5917 15.8324 30.5906L15.8505 30.5941C15.8396 30.5919 15.8287 30.5899 15.8177 30.588L15.8324 30.5906C15.82 30.5883 15.8076 30.5862 15.7951 30.5842L15.8177 30.588C15.8045 30.5857 15.7913 30.5836 15.778 30.5817L15.7951 30.5842C15.7863 30.5828 15.7775 30.5815 15.7687 30.5803L15.778 30.5817C15.7643 30.5797 15.7506 30.5779 15.7368 30.5763L15.7687 30.5803C15.7566 30.5787 15.7445 30.5772 15.7323 30.5758L15.7368 30.5763C15.7252 30.575 15.7136 30.5739 15.702 30.5728L15.7323 30.5758C15.7191 30.5744 15.7059 30.5731 15.6927 30.572L15.702 30.5728C15.689 30.5717 15.676 30.5707 15.663 30.5699L15.6927 30.572C15.6801 30.571 15.6675 30.5701 15.6549 30.5695L15.663 30.5699C15.6507 30.5692 15.6383 30.5686 15.626 30.5682L15.6549 30.5695C15.6298 30.5681 15.6045 30.5674 15.5791 30.5674L15.5416 30.5679C15.5385 30.568 15.5353 30.5681 15.5322 30.5682L15.5416 30.5679C15.5288 30.5683 15.5161 30.5688 15.5034 30.5695L15.5322 30.5682C15.5198 30.5686 15.5075 30.5692 15.4952 30.5699L15.5034 30.5695C15.4907 30.5701 15.4781 30.571 15.4655 30.572L15.4952 30.5699C15.4822 30.5707 15.4692 30.5717 15.4562 30.5728L15.4655 30.572C15.4523 30.5731 15.4391 30.5744 15.4259 30.5758L15.4562 30.5728C15.4446 30.5738 15.433 30.575 15.4214 30.5763L15.4259 30.5758C15.4135 30.5772 15.4012 30.5787 15.3889 30.5804L15.4214 30.5763C15.408 30.5779 15.3946 30.5796 15.3813 30.5815L15.3889 30.5804C15.3799 30.5817 15.3709 30.583 15.3619 30.5844L15.3813 30.5815C15.3676 30.5835 15.3539 30.5856 15.3403 30.588L15.3619 30.5844C15.351 30.5861 15.3401 30.588 15.3292 30.59L15.3403 30.588C15.3291 30.5899 15.3179 30.592 15.3068 30.5943L15.3292 30.59C15.2985 30.5956 15.2681 30.6022 15.2381 30.6098C15.2337 30.611 15.2293 30.6121 15.2249 30.6133L15.2381 30.6098C15.2258 30.613 15.2135 30.6163 15.2013 30.6197L15.2249 30.6133C15.2135 30.6163 15.2022 30.6195 15.1909 30.6228L15.2013 30.6197C15.1903 30.6228 15.1794 30.6261 15.1685 30.6295L15.1909 30.6228C15.1784 30.6264 15.1659 30.6303 15.1535 30.6343L15.1685 30.6295C15.157 30.633 15.1456 30.6367 15.1343 30.6406L15.1535 30.6343C15.1418 30.6381 15.1302 30.642 15.1186 30.6461L15.1343 30.6406C15.1235 30.6442 15.1128 30.648 15.1021 30.652L15.1186 30.6461C15.1072 30.6501 15.0958 30.6543 15.0845 30.6587L15.1021 30.652C15.093 30.6553 15.0838 30.6588 15.0748 30.6623L15.0845 30.6587C14.5678 30.8571 14.2011 31.3573 14.2011 31.9429C14.2011 32.7026 14.8181 33.3185 15.5791 33.3185Z" fill="#376FFF"/>
</svg>